<svg width="14" height="14" viewBox="0 0 14 14" fill="none" xmlns="http://www.w3.org/2000/svg">
<g id="Frame">
<path id="Vector" d="M4.70521 11.0507L8.49688 2.59241C8.54226 2.49126 8.62435 2.4111 8.72656 2.36815C8.82877 2.3252 8.94348 2.32265 9.04749 2.36103C9.15151 2.39941 9.23707 2.47584 9.28689 2.57488C9.33671 2.67393 9.34707 2.78819 9.31588 2.89458L9.29488 2.95058L5.50321 11.4089C5.45784 11.5101 5.37574 11.5902 5.27353 11.6332C5.17132 11.6761 5.05662 11.6787 4.9526 11.6403C4.84859 11.6019 4.76302 11.5255 4.7132 11.4264C4.66338 11.3274 4.65302 11.2131 4.68421 11.1067L4.70521 11.0507ZM1.29505 6.6915L3.77421 4.21233C3.85238 4.13477 3.95692 4.08954 4.06697 4.08567C4.17701 4.08179 4.28447 4.11956 4.3679 4.19142C4.45133 4.26329 4.50459 4.36398 4.51705 4.47339C4.52951 4.58279 4.50026 4.69288 4.43513 4.78166L4.39255 4.83125L2.22255 7.00066L4.39255 9.17008C4.47011 9.24825 4.51534 9.35279 4.51921 9.46283C4.52309 9.57288 4.48532 9.68034 4.41345 9.76377C4.34159 9.8472 4.2409 9.90046 4.13149 9.91292C4.02209 9.92538 3.912 9.89613 3.82321 9.831L3.77421 9.78841L1.29505 7.30925C1.22095 7.23517 1.1759 7.13696 1.16809 7.03248C1.16027 6.928 1.19021 6.82419 1.25246 6.73992L1.29505 6.69091V6.6915ZM9.60755 4.21233C9.68162 4.13824 9.77983 4.09319 9.88431 4.08537C9.98879 4.07756 10.0926 4.1075 10.1769 4.16975L10.2259 4.21233L12.705 6.6915C12.7791 6.76557 12.8242 6.86378 12.832 6.96826C12.8398 7.07274 12.8099 7.17656 12.7476 7.26083L12.705 7.31041L10.2259 9.78958C10.1478 9.86786 10.043 9.91368 9.93254 9.91784C9.82206 9.92199 9.71411 9.88417 9.63039 9.81197C9.54667 9.73978 9.49338 9.63856 9.48124 9.52868C9.4691 9.4188 9.49902 9.30839 9.56496 9.21966L9.60755 9.17066L11.7775 7.00066L9.60755 4.83066C9.52562 4.74863 9.4796 4.63744 9.4796 4.5215C9.4796 4.40556 9.52562 4.29436 9.60755 4.21233Z" fill="#9198A1"/>
</g>
</svg>
