<svg width="20" height="20" viewBox="0 0 20 20" fill="none" xmlns="http://www.w3.org/2000/svg">
<g id="Frame">
<path id="Vector" d="M9.99984 1.66602C14.6023 1.66602 18.3332 5.39685 18.3332 9.99935C18.3332 14.6018 14.6023 18.3327 9.99984 18.3327C5.39734 18.3327 1.6665 14.6018 1.6665 9.99935C1.6665 5.39685 5.39734 1.66602 9.99984 1.66602ZM12.9415 7.05768L12.8715 6.99685C12.7653 6.91836 12.637 6.87551 12.505 6.87447C12.3729 6.87342 12.2439 6.91422 12.1365 6.99102L12.0582 7.05768L9.99984 9.11518L7.9415 7.05685L7.8715 6.99685C7.76532 6.91836 7.637 6.87551 7.50495 6.87447C7.37291 6.87342 7.24392 6.91422 7.1365 6.99102L7.05817 7.05768L6.99734 7.12768C6.91885 7.23387 6.876 7.36219 6.87495 7.49423C6.87391 7.62628 6.91471 7.75526 6.9915 7.86268L7.05817 7.94102L9.11567 9.99935L7.05734 12.0577L6.99734 12.1277C6.91885 12.2339 6.876 12.3622 6.87495 12.4942C6.87391 12.6263 6.91471 12.7553 6.9915 12.8627L7.05817 12.941L7.12817 13.0018C7.23436 13.0803 7.36268 13.1232 7.49472 13.1242C7.62677 13.1253 7.75575 13.0845 7.86317 13.0077L7.9415 12.941L9.99984 10.8835L12.0582 12.9418L12.1282 13.0018C12.2344 13.0803 12.3627 13.1232 12.4947 13.1242C12.6268 13.1253 12.7557 13.0845 12.8632 13.0077L12.9415 12.941L13.0023 12.871C13.0808 12.7648 13.1237 12.6365 13.1247 12.5045C13.1258 12.3724 13.085 12.2434 13.0082 12.136L12.9415 12.0577L10.884 9.99935L12.9423 7.94102L13.0023 7.87102C13.0808 7.76483 13.1237 7.63651 13.1247 7.50446C13.1258 7.37242 13.085 7.24344 13.0082 7.13602L12.9415 7.05768Z" fill="#9198A1"/>
</g>
</svg>
