<svg width="24" height="24" viewBox="0 0 24 24" fill="none" xmlns="http://www.w3.org/2000/svg">
<g id="Frame">
<path id="Vector" d="M18.25 20.5009C18.4489 20.5009 18.6397 20.5799 18.7803 20.7205C18.921 20.8612 19 21.0519 19 21.2509C19 21.4498 18.921 21.6405 18.7803 21.7812C18.6397 21.9218 18.4489 22.0009 18.25 22.0009L5.25 22.0049C5.05109 22.0049 4.86032 21.9258 4.71967 21.7852C4.57902 21.6445 4.5 21.4538 4.5 21.2549C4.5 21.0559 4.57902 20.8652 4.71967 20.7245C4.86032 20.5839 5.05109 20.5049 5.25 20.5049L18.25 20.5009ZM11.648 2.01286L11.75 2.00586C11.9312 2.00587 12.1063 2.0715 12.2429 2.19063C12.3795 2.30975 12.4684 2.47431 12.493 2.65386L12.5 2.75586L12.499 16.4409L16.221 12.7209C16.348 12.5938 16.5163 12.5166 16.6955 12.5032C16.8746 12.4898 17.0525 12.5411 17.197 12.6479L17.282 12.7209C17.4089 12.848 17.4859 13.0164 17.4991 13.1955C17.5123 13.3746 17.4608 13.5525 17.354 13.6969L17.281 13.7809L12.284 18.7779C12.157 18.9049 11.9887 18.9821 11.8095 18.9955C11.6304 19.0089 11.4525 18.9576 11.308 18.8509L11.223 18.7779L6.22 13.7819C6.08546 13.6482 6.00655 13.4685 5.99915 13.279C5.99176 13.0895 6.05642 12.9043 6.18013 12.7605C6.30384 12.6168 6.47741 12.5253 6.6659 12.5044C6.85439 12.4835 7.0438 12.5347 7.196 12.6479L7.28 12.7199L10.999 16.4339L11 2.75586C11 2.57462 11.0656 2.39952 11.1848 2.26293C11.3039 2.12634 11.4684 2.03751 11.648 2.01286Z" fill="white"/>
</g>
</svg>
