<svg width="24" height="24" viewBox="0 0 24 24" fill="none" xmlns="http://www.w3.org/2000/svg">
<g id="Frame">
<path id="Vector" d="M8.502 11.5C8.76775 11.5 9.02261 11.6056 9.21052 11.7935C9.39843 11.9814 9.504 12.2363 9.504 12.502C9.504 12.7677 9.39843 13.0226 9.21052 13.2105C9.02261 13.3984 8.76775 13.504 8.502 13.504C8.23625 13.504 7.98139 13.3984 7.79348 13.2105C7.60557 13.0226 7.5 12.7677 7.5 12.502C7.5 12.2363 7.60557 11.9814 7.79348 11.7935C7.98139 11.6056 8.23625 11.5 8.502 11.5Z" fill="white"/>
<path id="Vector_2" d="M12 4.3535V11.0045L19.442 11.0035L17.72 9.2795C17.593 9.15252 17.5158 8.98416 17.5024 8.80505C17.489 8.62594 17.5403 8.44797 17.647 8.3035L17.72 8.2195C17.847 8.09249 18.0153 8.01526 18.1945 8.00186C18.3736 7.98847 18.5515 8.03979 18.696 8.1465L18.78 8.2195L21.777 11.2165C21.904 11.3435 21.9812 11.5118 21.9946 11.691C22.008 11.8701 21.9567 12.048 21.85 12.1925L21.777 12.2765L18.781 15.2805C18.6472 15.4138 18.468 15.4917 18.2792 15.4986C18.0904 15.5055 17.906 15.4409 17.7628 15.3178C17.6196 15.1946 17.5281 15.022 17.5066 14.8343C17.4852 14.6467 17.5353 14.4578 17.647 14.3055L17.719 14.2205L19.432 12.5035L12.001 12.5045L12 19.2495C12.0001 19.359 11.9761 19.4672 11.9299 19.5665C11.8836 19.6658 11.8162 19.7538 11.7323 19.8242C11.6484 19.8946 11.5502 19.9458 11.4444 19.9742C11.3386 20.0026 11.2279 20.0075 11.12 19.9885L2.62 18.4865C2.44658 18.456 2.28943 18.3654 2.17607 18.2307C2.06272 18.0959 2.00039 17.9256 2 17.7495V5.7495C2 5.57174 2.06314 5.39976 2.17816 5.26423C2.29318 5.12869 2.45261 5.03842 2.628 5.00951L11.128 3.6135C11.2354 3.5958 11.3453 3.60168 11.4502 3.63072C11.555 3.65976 11.6523 3.71127 11.7353 3.78167C11.8182 3.85208 11.8849 3.93969 11.9306 4.03844C11.9763 4.13718 12 4.24469 12 4.3535ZM10.5 5.2365L3.5 6.3865V17.1195L10.5 18.3555V5.2365Z" fill="white"/>
<path id="Vector_3" d="M13 18.501H13.765L13.867 18.495C14.0469 18.4703 14.2117 18.3812 14.3309 18.2442C14.4501 18.1072 14.5155 17.9316 14.515 17.75L14.508 13.5H13V18.501ZM13.002 10L13 8.725V5H13.745C13.9261 4.99997 14.1011 5.06547 14.2376 5.18439C14.3742 5.30331 14.4631 5.46763 14.488 5.647L14.495 5.749L14.502 10H13.002Z" fill="white"/>
</g>
</svg>
