<svg width="14" height="14" viewBox="0 0 14 14" fill="none" xmlns="http://www.w3.org/2000/svg">
<g id="Frame">
<path id="Vector" d="M6.15417 1.47686C6.39086 1.27738 6.69045 1.16797 7 1.16797C7.30955 1.16797 7.60914 1.27738 7.84583 1.47686L11.7833 4.7972C12.0791 5.04686 12.25 5.41378 12.25 5.80053V11.5189C12.25 11.7897 12.1424 12.0493 11.951 12.2408C11.7596 12.4322 11.4999 12.5398 11.2292 12.5398H9.1875C8.91676 12.5398 8.6571 12.4322 8.46566 12.2408C8.27422 12.0493 8.16667 11.7897 8.16667 11.5189V8.31061C8.16667 8.27194 8.1513 8.23484 8.12395 8.20749C8.0966 8.18015 8.05951 8.16478 8.02083 8.16478H5.97917C5.94049 8.16478 5.9034 8.18015 5.87605 8.20749C5.8487 8.23484 5.83333 8.27194 5.83333 8.31061V11.5189C5.83333 11.7897 5.72578 12.0493 5.53434 12.2408C5.34289 12.4322 5.08324 12.5398 4.8125 12.5398H2.77083C2.63678 12.5398 2.50403 12.5134 2.38018 12.4621C2.25632 12.4108 2.14379 12.3356 2.049 12.2408C1.9542 12.146 1.87901 12.0335 1.82771 11.9096C1.7764 11.7858 1.75 11.653 1.75 11.5189V5.80053C1.75 5.41378 1.92092 5.04686 2.21667 4.7972L6.15417 1.47686ZM7.28175 2.14595C7.20288 2.07955 7.1031 2.04315 7 2.04315C6.8969 2.04315 6.79712 2.07955 6.71825 2.14595L2.78075 5.4657C2.73202 5.50672 2.69284 5.55788 2.66594 5.61561C2.63904 5.67334 2.62507 5.73625 2.625 5.79995V11.5184C2.625 11.5989 2.69033 11.6642 2.77083 11.6642H4.8125C4.85118 11.6642 4.88827 11.6488 4.91562 11.6215C4.94297 11.5941 4.95833 11.557 4.95833 11.5184V8.31003C4.95833 7.74595 5.41567 7.2892 5.97917 7.2892H8.02083C8.58433 7.2892 9.04167 7.74595 9.04167 8.31003V11.5184C9.04167 11.5989 9.107 11.6642 9.1875 11.6642H11.2292C11.2678 11.6642 11.3049 11.6488 11.3323 11.6215C11.3596 11.5941 11.375 11.557 11.375 11.5184V5.80053C11.3749 5.73684 11.361 5.67393 11.3341 5.6162C11.3072 5.55846 11.268 5.5073 11.2192 5.46628L7.28175 2.14595Z" fill="#9198A1"/>
</g>
</svg>
