<svg width="24" height="24" viewBox="0 0 24 24" fill="none" xmlns="http://www.w3.org/2000/svg">
<g id="Frame">
<path id="Vector" d="M18.25 7C18.25 7.33152 18.1183 7.64946 17.8839 7.88388C17.6495 8.1183 17.3315 8.25 17 8.25C16.6685 8.25 16.3505 8.1183 16.1161 7.88388C15.8817 7.64946 15.75 7.33152 15.75 7C15.75 6.66848 15.8817 6.35054 16.1161 6.11612C16.3505 5.8817 16.6685 5.75 17 5.75C17.3315 5.75 17.6495 5.8817 17.8839 6.11612C18.1183 6.35054 18.25 6.66848 18.25 7Z" fill="white"/>
<path id="Vector_2" d="M15.5002 2.05078C13.7634 2.05184 12.098 2.74227 10.8698 3.9704C9.64171 5.19854 8.95128 6.86394 8.95022 8.60078C8.95022 8.98778 9.00022 9.36078 9.06022 9.70478C9.06901 9.74808 9.06724 9.79287 9.05506 9.83534C9.04287 9.87781 9.02063 9.91673 8.99022 9.94878L2.75522 16.1848C2.23943 16.7003 1.94951 17.3995 1.94922 18.1288V20.3008C1.94922 21.2668 2.73322 22.0508 3.69922 22.0508H6.19922C6.66335 22.0508 7.10847 21.8664 7.43666 21.5382C7.76484 21.21 7.94922 20.7649 7.94922 20.3008V19.0508H9.70022C10.3902 19.0508 10.9502 18.4908 10.9502 17.8008V16.0508H12.7002C13.0239 16.051 13.3351 15.9256 13.5682 15.7011C13.8014 15.4765 13.9383 15.1703 13.9502 14.8468C14.4462 14.9748 14.9702 15.0508 15.5002 15.0508C17.2371 15.0497 18.9025 14.3593 20.1306 13.1312C21.3587 11.903 22.0492 10.2376 22.0502 8.50078C22.0502 4.86978 19.0972 2.05078 15.5002 2.05078ZM10.4502 8.60078C10.4513 7.26176 10.9837 5.97789 11.9305 5.03106C12.8773 4.08423 14.1612 3.55184 15.5002 3.55078C18.3022 3.55078 20.5502 5.73178 20.5502 8.50078C20.5492 9.8398 20.0168 11.1237 19.0699 12.0705C18.1231 13.0173 16.8392 13.5497 15.5002 13.5508C14.8202 13.5508 14.1202 13.3798 13.4952 13.1108C13.3811 13.0617 13.2565 13.0418 13.1328 13.0528C13.009 13.0639 12.8899 13.1054 12.7862 13.1738C12.6825 13.2423 12.5974 13.3354 12.5386 13.4448C12.4798 13.5542 12.4491 13.6765 12.4492 13.8008V14.5508H10.7002C10.0102 14.5508 9.45022 15.1108 9.45022 15.8008V17.5508H7.70022C7.01022 17.5508 6.45022 18.1108 6.45022 18.8008V20.3008C6.45022 20.3671 6.42388 20.4307 6.377 20.4776C6.33011 20.5244 6.26652 20.5508 6.20022 20.5508H3.70022C3.63391 20.5508 3.57033 20.5244 3.52344 20.4776C3.47656 20.4307 3.45022 20.3671 3.45022 20.3008V18.1288C3.45022 17.7978 3.58222 17.4788 3.81622 17.2448L10.0522 11.0098C10.2529 10.8073 10.4019 10.5595 10.4865 10.2872C10.5711 10.015 10.5888 9.72634 10.5382 9.44578C10.4846 9.16718 10.4551 8.88446 10.4502 8.60078Z" fill="white"/>
</g>
</svg>
