<svg width="27" height="28" viewBox="0 0 27 28" fill="none" xmlns="http://www.w3.org/2000/svg">
<g id="Password">
<path id="Stroke 1" fill-rule="evenodd" clip-rule="evenodd" d="M19.6081 1.66797H8.04943C4.02143 1.66797 1.49609 4.51997 1.49609 8.55597V19.4466C1.49609 23.4826 4.00943 26.3346 8.04943 26.3346H19.6068C23.6481 26.3346 26.1628 23.4826 26.1628 19.4466V8.55597C26.1628 4.51997 23.6481 1.66797 19.6081 1.66797Z" stroke="#F0F6FC" stroke-width="1.5" stroke-linecap="round" stroke-linejoin="round"/>
<path id="Stroke 3" fill-rule="evenodd" clip-rule="evenodd" d="M12.0858 14.0006C12.0858 15.3633 10.9804 16.4699 9.61644 16.4699C8.25377 16.4699 7.14844 15.3633 7.14844 14.0006C7.14844 12.6379 8.25377 11.5312 9.61644 11.5312C10.9804 11.5312 12.0858 12.6379 12.0858 14.0006Z" stroke="#F0F6FC" stroke-width="1.5" stroke-linecap="round" stroke-linejoin="round"/>
<path id="Stroke 5" d="M12.0859 14H20.5099V16.4693" stroke="#F0F6FC" stroke-width="1.5" stroke-linecap="round" stroke-linejoin="round"/>
<path id="Stroke 7" d="M16.737 16.4693V14" stroke="#F0F6FC" stroke-width="1.5" stroke-linecap="round" stroke-linejoin="round"/>
</g>
</svg>
