<svg width="24" height="24" viewBox="0 0 24 24" fill="none" xmlns="http://www.w3.org/2000/svg">
<g id="Frame">
<path id="Vector" d="M11.7517 3C11.9329 3.00001 12.108 3.06564 12.2446 3.18477C12.3812 3.30389 12.47 3.46845 12.4947 3.648L12.5017 3.75L12.5027 11H19.7557C19.9457 11.0001 20.1286 11.0722 20.2675 11.202C20.4063 11.3317 20.4908 11.5093 20.5037 11.6989C20.5167 11.8885 20.4572 12.0759 20.3372 12.2233C20.2173 12.3707 20.0459 12.4671 19.8577 12.493L19.7557 12.5H12.5027L12.5047 19.75C12.5044 19.9399 12.432 20.1227 12.3022 20.2613C12.1724 20.4 11.9948 20.4842 11.8053 20.4971C11.6158 20.5099 11.4285 20.4503 11.2812 20.3304C11.1339 20.2105 11.0376 20.0392 11.0117 19.851L11.0047 19.749L11.0027 12.5H3.75368C3.56365 12.4999 3.38074 12.4278 3.24189 12.298C3.10304 12.1683 3.0186 11.9907 3.00565 11.8011C2.9927 11.6115 3.05219 11.4241 3.17211 11.2767C3.29203 11.1293 3.46343 11.0329 3.65168 11.007L3.75368 11H11.0037L11.0017 3.75C11.0017 3.55109 11.0807 3.36032 11.2213 3.21967C11.362 3.07902 11.5528 3 11.7517 3Z" fill="white"/>
</g>
</svg>
