<svg width="89" height="16" viewBox="0 0 89 16" fill="none" xmlns="http://www.w3.org/2000/svg">
<mask id="path-1-outside-1_4466_34497" maskUnits="userSpaceOnUse" x="0" y="0" width="89" height="16" fill="black">
<rect fill="white" width="89" height="16"/>
<path d="M0.6 15V0.999999H6.94C10 0.999999 12.04 3.04 12.04 6.1C12.04 9.26 10 11.3 6.94 11.3H3.1V15H0.6ZM6.72 9C8.42 9 9.54 7.88 9.54 6.18C9.54 4.42 8.42 3.3 6.72 3.3H3.1V9H6.72ZM12.9708 10C12.9708 6.92 15.0508 4.86 18.1508 4.86C21.2508 4.86 23.3108 6.92 23.3108 10C23.3108 13.1 21.2508 15.18 18.1508 15.18C15.0508 15.18 12.9708 13.1 12.9708 10ZM15.3708 10.02C15.3708 11.88 16.4708 12.98 18.1308 12.98C19.8108 12.98 20.9108 11.88 20.9108 10.02C20.9108 8.16 19.8108 7.06 18.1308 7.06C16.4708 7.06 15.3708 8.16 15.3708 10.02ZM32.6827 0.999999H35.0827V10.02C35.0827 13.24 32.7827 15.16 29.8427 15.16C26.8227 15.16 24.7427 13.1 24.7427 10.02C24.7427 6.92 26.8227 4.84 29.7227 4.84C31.1627 4.84 32.2027 5.36 32.6827 5.98V0.999999ZM27.1427 10C27.1427 11.86 28.2427 12.96 29.9027 12.96C31.5827 12.96 32.6827 11.86 32.6827 10C32.6827 8.14 31.5827 7.04 29.9027 7.04C28.2427 7.04 27.1427 8.14 27.1427 10ZM36.5145 10C36.5145 6.92 38.5945 4.86 41.6945 4.86C44.7945 4.86 46.8545 6.92 46.8545 10C46.8545 13.1 44.7945 15.18 41.6945 15.18C38.5945 15.18 36.5145 13.1 36.5145 10ZM38.9145 10.02C38.9145 11.88 40.0145 12.98 41.6745 12.98C43.3545 12.98 44.4545 11.88 44.4545 10.02C44.4545 8.16 43.3545 7.06 41.6745 7.06C40.0145 7.06 38.9145 8.16 38.9145 10.02ZM53.8111 0.86V3.06C52.1711 3.06 51.3911 3.62 51.2111 5H53.4711V7.2H51.1911V15H48.7911V7.2H47.7911V5H48.8111C49.0311 2.3 50.7511 0.86 53.8111 0.86ZM59.3975 4.86C62.4975 4.86 64.5775 6.94 64.5775 10.04V15H62.1775V14.04C61.6975 14.66 60.6775 15.18 59.2175 15.18C56.3175 15.18 54.2375 13.1 54.2375 10C54.2375 6.92 56.3175 4.86 59.3975 4.86ZM62.1775 10.02C62.1775 8.16 61.0775 7.06 59.4175 7.06C57.7375 7.06 56.6375 8.16 56.6375 10.02C56.6375 11.88 57.7375 12.98 59.4175 12.98C61.0775 12.98 62.1775 11.88 62.1775 10.02ZM66.368 9.4C66.368 6.36 68.288 4.82 71.328 4.82V7.02C69.728 7.02 68.768 7.8 68.768 9.4V15H66.368V9.4ZM77.1539 4.82C78.8939 4.82 79.9339 5.52 80.5539 6.42C81.1739 5.52 82.2139 4.82 83.9539 4.82C87.2539 4.82 88.5539 7.3 88.5539 9.04V15H86.1539V9.1C86.1539 7.68 85.1139 7.04 83.9539 7.04C82.7939 7.04 81.7539 7.68 81.7539 9.1V15H79.3539V9.1C79.3539 7.68 78.3139 7.04 77.1539 7.04C75.9939 7.04 74.9539 7.68 74.9539 9.1V15H72.5539V9.04C72.5539 7.3 73.8539 4.82 77.1539 4.82Z"/>
</mask>
<path d="M0.6 15V0.999999H6.94C10 0.999999 12.04 3.04 12.04 6.1C12.04 9.26 10 11.3 6.94 11.3H3.1V15H0.6ZM6.72 9C8.42 9 9.54 7.88 9.54 6.18C9.54 4.42 8.42 3.3 6.72 3.3H3.1V9H6.72ZM12.9708 10C12.9708 6.92 15.0508 4.86 18.1508 4.86C21.2508 4.86 23.3108 6.92 23.3108 10C23.3108 13.1 21.2508 15.18 18.1508 15.18C15.0508 15.18 12.9708 13.1 12.9708 10ZM15.3708 10.02C15.3708 11.88 16.4708 12.98 18.1308 12.98C19.8108 12.98 20.9108 11.88 20.9108 10.02C20.9108 8.16 19.8108 7.06 18.1308 7.06C16.4708 7.06 15.3708 8.16 15.3708 10.02ZM32.6827 0.999999H35.0827V10.02C35.0827 13.24 32.7827 15.16 29.8427 15.16C26.8227 15.16 24.7427 13.1 24.7427 10.02C24.7427 6.92 26.8227 4.84 29.7227 4.84C31.1627 4.84 32.2027 5.36 32.6827 5.98V0.999999ZM27.1427 10C27.1427 11.86 28.2427 12.96 29.9027 12.96C31.5827 12.96 32.6827 11.86 32.6827 10C32.6827 8.14 31.5827 7.04 29.9027 7.04C28.2427 7.04 27.1427 8.14 27.1427 10ZM36.5145 10C36.5145 6.92 38.5945 4.86 41.6945 4.86C44.7945 4.86 46.8545 6.92 46.8545 10C46.8545 13.1 44.7945 15.18 41.6945 15.18C38.5945 15.18 36.5145 13.1 36.5145 10ZM38.9145 10.02C38.9145 11.88 40.0145 12.98 41.6745 12.98C43.3545 12.98 44.4545 11.88 44.4545 10.02C44.4545 8.16 43.3545 7.06 41.6745 7.06C40.0145 7.06 38.9145 8.16 38.9145 10.02ZM53.8111 0.86V3.06C52.1711 3.06 51.3911 3.62 51.2111 5H53.4711V7.2H51.1911V15H48.7911V7.2H47.7911V5H48.8111C49.0311 2.3 50.7511 0.86 53.8111 0.86ZM59.3975 4.86C62.4975 4.86 64.5775 6.94 64.5775 10.04V15H62.1775V14.04C61.6975 14.66 60.6775 15.18 59.2175 15.18C56.3175 15.18 54.2375 13.1 54.2375 10C54.2375 6.92 56.3175 4.86 59.3975 4.86ZM62.1775 10.02C62.1775 8.16 61.0775 7.06 59.4175 7.06C57.7375 7.06 56.6375 8.16 56.6375 10.02C56.6375 11.88 57.7375 12.98 59.4175 12.98C61.0775 12.98 62.1775 11.88 62.1775 10.02ZM66.368 9.4C66.368 6.36 68.288 4.82 71.328 4.82V7.02C69.728 7.02 68.768 7.8 68.768 9.4V15H66.368V9.4ZM77.1539 4.82C78.8939 4.82 79.9339 5.52 80.5539 6.42C81.1739 5.52 82.2139 4.82 83.9539 4.82C87.2539 4.82 88.5539 7.3 88.5539 9.04V15H86.1539V9.1C86.1539 7.68 85.1139 7.04 83.9539 7.04C82.7939 7.04 81.7539 7.68 81.7539 9.1V15H79.3539V9.1C79.3539 7.68 78.3139 7.04 77.1539 7.04C75.9939 7.04 74.9539 7.68 74.9539 9.1V15H72.5539V9.04C72.5539 7.3 73.8539 4.82 77.1539 4.82Z" fill="#F0F6FC"/>
<path d="M0.6 15H0.25V15.35H0.6V15ZM0.6 0.999999V0.649999H0.25V0.999999H0.6ZM3.1 11.3V10.95H2.75V11.3H3.1ZM3.1 15V15.35H3.45V15H3.1ZM3.1 3.3V2.95H2.75V3.3H3.1ZM3.1 9H2.75V9.35H3.1V9ZM0.95 15V0.999999H0.25V15H0.95ZM0.6 1.35H6.94V0.649999H0.6V1.35ZM6.94 1.35C8.39046 1.35 9.57199 1.83196 10.39 2.64999C11.208 3.46801 11.69 4.64954 11.69 6.1H12.39C12.39 4.49046 11.852 3.12198 10.885 2.15501C9.91801 1.18804 8.54954 0.649999 6.94 0.649999V1.35ZM11.69 6.1C11.69 7.60342 11.2061 8.80994 10.3883 9.63924C9.57079 10.4682 8.39033 10.95 6.94 10.95V11.65C8.54967 11.65 9.91921 11.1118 10.8867 10.1308C11.8539 9.15006 12.39 7.75658 12.39 6.1H11.69ZM6.94 10.95H3.1V11.65H6.94V10.95ZM2.75 11.3V15H3.45V11.3H2.75ZM3.1 14.65H0.6V15.35H3.1V14.65ZM6.72 9.35C7.64849 9.35 8.44736 9.04261 9.01499 8.47499C9.58261 7.90736 9.89 7.10849 9.89 6.18H9.19C9.19 6.95151 8.93739 7.56264 8.52001 7.98001C8.10264 8.39739 7.49151 8.65 6.72 8.65V9.35ZM9.89 6.18C9.89 5.2247 9.58463 4.41082 9.01685 3.83439C8.44867 3.25756 7.64863 2.95 6.72 2.95V3.65C7.49137 3.65 8.10133 3.90244 8.51815 4.32561C8.93537 4.74918 9.19 5.3753 9.19 6.18H9.89ZM6.72 2.95H3.1V3.65H6.72V2.95ZM2.75 3.3V9H3.45V3.3H2.75ZM3.1 9.35H6.72V8.65H3.1V9.35ZM13.3208 10C13.3208 8.54083 13.8119 7.34949 14.6447 6.52351C15.4779 5.69727 16.6799 5.21 18.1508 5.21V4.51C16.5217 4.51 15.1337 5.05273 14.1518 6.02649C13.1697 7.00051 12.6208 8.37917 12.6208 10H13.3208ZM18.1508 5.21C19.6216 5.21 20.8182 5.69717 21.6461 6.52283C22.474 7.34843 22.9608 8.53985 22.9608 10H23.6608C23.6608 8.38015 23.1175 7.00157 22.1404 6.02717C21.1634 5.05283 19.78 4.51 18.1508 4.51V5.21ZM22.9608 10C22.9608 11.4709 22.4735 12.6727 21.6451 13.5057C20.8169 14.3385 19.6206 14.83 18.1508 14.83V15.53C19.781 15.53 21.1647 14.9815 22.1415 13.9993C23.118 13.0173 23.6608 11.6291 23.6608 10H22.9608ZM18.1508 14.83C16.6809 14.83 15.4792 14.3384 14.6458 13.505C13.8124 12.6716 13.3208 11.4699 13.3208 10H12.6208C12.6208 11.6301 13.1692 13.0184 14.1508 14C15.1324 14.9816 16.5207 15.53 18.1508 15.53V14.83ZM15.0208 10.02C15.0208 11.0187 15.3171 11.8523 15.8746 12.4387C16.4337 13.0267 17.2212 13.33 18.1308 13.33V12.63C17.3803 12.63 16.7879 12.3833 16.3819 11.9563C15.9744 11.5277 15.7208 10.8813 15.7208 10.02H15.0208ZM18.1308 13.33C19.0492 13.33 19.8418 13.0274 20.4038 12.4393C20.9644 11.8527 21.2608 11.0187 21.2608 10.02H20.5608C20.5608 10.8813 20.3072 11.5273 19.8977 11.9557C19.4898 12.3826 18.8924 12.63 18.1308 12.63V13.33ZM21.2608 10.02C21.2608 9.02128 20.9644 8.18727 20.4038 7.60069C19.8418 7.01258 19.0492 6.71 18.1308 6.71V7.41C18.8924 7.41 19.4898 7.65742 19.8977 8.08431C20.3072 8.51273 20.5608 9.15872 20.5608 10.02H21.2608ZM18.1308 6.71C17.2212 6.71 16.4337 7.01332 15.8746 7.60134C15.3171 8.18771 15.0208 9.0213 15.0208 10.02H15.7208C15.7208 9.1587 15.9744 8.51229 16.3819 8.08366C16.7879 7.65668 17.3803 7.41 18.1308 7.41V6.71ZM32.6827 0.999999V0.649999H32.3327V0.999999H32.6827ZM35.0827 0.999999H35.4327V0.649999H35.0827V0.999999ZM32.6827 5.98L32.4059 6.19426L33.0327 7.00382V5.98H32.6827ZM32.6827 1.35H35.0827V0.649999H32.6827V1.35ZM34.7327 0.999999V10.02H35.4327V0.999999H34.7327ZM34.7327 10.02C34.7327 11.5421 34.1915 12.7315 33.3259 13.542C32.4573 14.3554 31.2369 14.81 29.8427 14.81V15.51C31.3884 15.51 32.7881 15.0046 33.8044 14.053C34.8238 13.0985 35.4327 11.7179 35.4327 10.02H34.7327ZM29.8427 14.81C28.4142 14.81 27.2321 14.3243 26.408 13.4979C25.5839 12.6715 25.0927 11.4793 25.0927 10.02H24.3927C24.3927 11.6407 24.9414 13.0185 25.9123 13.9921C26.8832 14.9657 28.2511 15.51 29.8427 15.51V14.81ZM25.0927 10.02C25.0927 8.54986 25.5846 7.34601 26.3961 6.51151C27.2072 5.67743 28.359 5.19 29.7227 5.19V4.49C28.1863 4.49 26.8481 5.04257 25.8942 6.02349C24.9408 7.00399 24.3927 8.39014 24.3927 10.02H25.0927ZM29.7227 5.19C31.089 5.19 32.0108 5.68396 32.4059 6.19426L32.9594 5.76574C32.3945 5.03604 31.2363 4.49 29.7227 4.49V5.19ZM33.0327 5.98V0.999999H32.3327V5.98H33.0327ZM26.7927 10C26.7927 10.9987 27.089 11.8323 27.6465 12.4187C28.2056 13.0067 28.9931 13.31 29.9027 13.31V12.61C29.1522 12.61 28.5598 12.3633 28.1538 11.9363C27.7463 11.5077 27.4927 10.8613 27.4927 10H26.7927ZM29.9027 13.31C30.8211 13.31 31.6137 13.0074 32.1757 12.4193C32.7363 11.8327 33.0327 10.9987 33.0327 10H32.3327C32.3327 10.8613 32.079 11.5073 31.6696 11.9357C31.2617 12.3626 30.6643 12.61 29.9027 12.61V13.31ZM33.0327 10C33.0327 9.00128 32.7363 8.16727 32.1757 7.58068C31.6137 6.99258 30.8211 6.69 29.9027 6.69V7.39C30.6643 7.39 31.2617 7.63742 31.6696 8.06431C32.079 8.49273 32.3327 9.13872 32.3327 10H33.0327ZM29.9027 6.69C28.9931 6.69 28.2056 6.99332 27.6465 7.58134C27.089 8.16771 26.7927 9.0013 26.7927 10H27.4927C27.4927 9.1387 27.7463 8.49229 28.1538 8.06366C28.5598 7.63668 29.1522 7.39 29.9027 7.39V6.69ZM36.8645 10C36.8645 8.54083 37.3556 7.34949 38.1885 6.52351C39.0216 5.69727 40.2236 5.21 41.6945 5.21V4.51C40.0654 4.51 38.6774 5.05273 37.6956 6.02649C36.7134 7.00051 36.1645 8.37917 36.1645 10H36.8645ZM41.6945 5.21C43.1653 5.21 44.3619 5.69717 45.1899 6.52283C46.0178 7.34843 46.5045 8.53985 46.5045 10H47.2045C47.2045 8.38015 46.6613 7.00157 45.6842 6.02717C44.7071 5.05283 43.3238 4.51 41.6945 4.51V5.21ZM46.5045 10C46.5045 11.4709 46.0173 12.6727 45.1889 13.5057C44.3606 14.3385 43.1643 14.83 41.6945 14.83V15.53C43.3248 15.53 44.7084 14.9815 45.6852 13.9993C46.6618 13.0173 47.2045 11.6291 47.2045 10H46.5045ZM41.6945 14.83C40.2246 14.83 39.0229 14.3384 38.1895 13.505C37.3561 12.6716 36.8645 11.4699 36.8645 10H36.1645C36.1645 11.6301 36.7129 13.0184 37.6945 14C38.6762 14.9816 40.0644 15.53 41.6945 15.53V14.83ZM38.5645 10.02C38.5645 11.0187 38.8609 11.8523 39.4184 12.4387C39.9774 13.0267 40.765 13.33 41.6745 13.33V12.63C40.9241 12.63 40.3316 12.3833 39.9257 11.9563C39.5182 11.5277 39.2645 10.8813 39.2645 10.02H38.5645ZM41.6745 13.33C42.5929 13.33 43.3855 13.0274 43.9476 12.4393C44.5081 11.8527 44.8045 11.0187 44.8045 10.02H44.1045C44.1045 10.8813 43.8509 11.5273 43.4415 11.9557C43.0335 12.3826 42.4361 12.63 41.6745 12.63V13.33ZM44.8045 10.02C44.8045 9.02128 44.5081 8.18727 43.9476 7.60069C43.3855 7.01258 42.5929 6.71 41.6745 6.71V7.41C42.4361 7.41 43.0335 7.65742 43.4415 8.08431C43.8509 8.51273 44.1045 9.15872 44.1045 10.02H44.8045ZM41.6745 6.71C40.765 6.71 39.9774 7.01332 39.4184 7.60134C38.8609 8.18771 38.5645 9.0213 38.5645 10.02H39.2645C39.2645 9.1587 39.5182 8.51229 39.9257 8.08366C40.3316 7.65668 40.9241 7.41 41.6745 7.41V6.71ZM53.8111 0.86H54.1611V0.51H53.8111V0.86ZM53.8111 3.06V3.41H54.1611V3.06H53.8111ZM51.2111 5L50.864 4.95473L50.8125 5.35H51.2111V5ZM53.4711 5H53.8211V4.65H53.4711V5ZM53.4711 7.2V7.55H53.8211V7.2H53.4711ZM51.1911 7.2V6.85H50.8411V7.2H51.1911ZM51.1911 15V15.35H51.5411V15H51.1911ZM48.7911 15H48.4411V15.35H48.7911V15ZM48.7911 7.2H49.1411V6.85H48.7911V7.2ZM47.7911 7.2H47.4411V7.55H47.7911V7.2ZM47.7911 5V4.65H47.4411V5H47.7911ZM48.8111 5V5.35H49.1337L49.1599 5.02842L48.8111 5ZM53.4611 0.86V3.06H54.1611V0.86H53.4611ZM53.8111 2.71C52.961 2.71 52.2664 2.85323 51.7555 3.23111C51.2318 3.61842 50.9617 4.20595 50.864 4.95473L51.5582 5.04527C51.6405 4.41405 51.8504 4.03158 52.1717 3.79389C52.5058 3.54677 53.0212 3.41 53.8111 3.41V2.71ZM51.2111 5.35H53.4711V4.65H51.2111V5.35ZM53.1211 5V7.2H53.8211V5H53.1211ZM53.4711 6.85H51.1911V7.55H53.4711V6.85ZM50.8411 7.2V15H51.5411V7.2H50.8411ZM51.1911 14.65H48.7911V15.35H51.1911V14.65ZM49.1411 15V7.2H48.4411V15H49.1411ZM48.7911 6.85H47.7911V7.55H48.7911V6.85ZM48.1411 7.2V5H47.4411V7.2H48.1411ZM47.7911 5.35H48.8111V4.65H47.7911V5.35ZM49.1599 5.02842C49.2642 3.74936 49.7181 2.81085 50.4697 2.18677C51.2268 1.55809 52.3322 1.21 53.8111 1.21V0.51C52.23 0.51 50.9454 0.881911 50.0225 1.64823C49.0941 2.41915 48.578 3.55064 48.4623 4.97158L49.1599 5.02842ZM64.5775 15V15.35H64.9275V15H64.5775ZM62.1775 15H61.8275V15.35H62.1775V15ZM62.1775 14.04H62.5275V13.0162L61.9007 13.8257L62.1775 14.04ZM59.3975 5.21C60.8674 5.21 62.0691 5.7016 62.9025 6.53499C63.7359 7.36837 64.2275 8.5701 64.2275 10.04H64.9275C64.9275 8.40989 64.3791 7.02163 63.3975 6.04001C62.4159 5.0584 61.0276 4.51 59.3975 4.51V5.21ZM64.2275 10.04V15H64.9275V10.04H64.2275ZM64.5775 14.65H62.1775V15.35H64.5775V14.65ZM62.5275 15V14.04H61.8275V15H62.5275ZM61.9007 13.8257C61.5052 14.3367 60.6028 14.83 59.2175 14.83V15.53C60.7522 15.53 61.8898 14.9833 62.4543 14.2543L61.9007 13.8257ZM59.2175 14.83C57.8538 14.83 56.702 14.3426 55.8909 13.5085C55.0794 12.674 54.5875 11.4701 54.5875 10H53.8875C53.8875 11.6299 54.4356 13.016 55.3891 13.9965C56.343 14.9774 57.6812 15.53 59.2175 15.53V14.83ZM54.5875 10C54.5875 8.54081 55.0786 7.34925 55.9093 6.52317C56.7402 5.69689 57.9372 5.21 59.3975 5.21V4.51C57.7778 4.51 56.3948 5.05311 55.4157 6.02683C54.4364 7.00075 53.8875 8.37919 53.8875 10H54.5875ZM62.5275 10.02C62.5275 9.0213 62.2311 8.18771 61.6737 7.60134C61.1146 7.01332 60.327 6.71 59.4175 6.71V7.41C60.168 7.41 60.7604 7.65668 61.1663 8.08366C61.5739 8.51229 61.8275 9.1587 61.8275 10.02H62.5275ZM59.4175 6.71C58.4991 6.71 57.7065 7.01258 57.1445 7.60069C56.5839 8.18727 56.2875 9.02128 56.2875 10.02H56.9875C56.9875 9.15872 57.2411 8.51273 57.6505 8.08431C58.0585 7.65742 58.6559 7.41 59.4175 7.41V6.71ZM56.2875 10.02C56.2875 11.0187 56.5839 11.8527 57.1445 12.4393C57.7065 13.0274 58.4991 13.33 59.4175 13.33V12.63C58.6559 12.63 58.0585 12.3826 57.6505 11.9557C57.2411 11.5273 56.9875 10.8813 56.9875 10.02H56.2875ZM59.4175 13.33C60.327 13.33 61.1146 13.0267 61.6737 12.4387C62.2311 11.8523 62.5275 11.0187 62.5275 10.02H61.8275C61.8275 10.8813 61.5739 11.5277 61.1663 11.9563C60.7604 12.3833 60.168 12.63 59.4175 12.63V13.33ZM71.328 4.82H71.678V4.47H71.328V4.82ZM71.328 7.02V7.37H71.678V7.02H71.328ZM68.768 15V15.35H69.118V15H68.768ZM66.368 15H66.018V15.35H66.368V15ZM66.718 9.4C66.718 7.95673 67.171 6.91609 67.9406 6.23151C68.7167 5.54116 69.8628 5.17 71.328 5.17V4.47C69.7531 4.47 68.4193 4.86884 67.4753 5.70849C66.5249 6.55391 66.018 7.80327 66.018 9.4H66.718ZM70.978 4.82V7.02H71.678V4.82H70.978ZM71.328 6.67C70.4762 6.67 69.7401 6.87738 69.2142 7.34955C68.6818 7.82748 68.418 8.52843 68.418 9.4H69.118C69.118 8.67157 69.3342 8.18252 69.6818 7.87045C70.0358 7.55262 70.5798 7.37 71.328 7.37V6.67ZM68.418 9.4V15H69.118V9.4H68.418ZM68.768 14.65H66.368V15.35H68.768V14.65ZM66.718 15V9.4H66.018V15H66.718ZM80.5539 6.42L80.2657 6.61856L80.5539 7.03695L80.8421 6.61856L80.5539 6.42ZM88.5539 15V15.35H88.9039V15H88.5539ZM86.1539 15H85.8039V15.35H86.1539V15ZM81.7539 15V15.35H82.1039V15H81.7539ZM79.3539 15H79.0039V15.35H79.3539V15ZM74.9539 15V15.35H75.3039V15H74.9539ZM72.5539 15H72.2039V15.35H72.5539V15ZM77.1539 5.17C78.7819 5.17 79.7127 5.81589 80.2657 6.61856L80.8421 6.22144C80.1551 5.22411 79.006 4.47 77.1539 4.47V5.17ZM80.8421 6.61856C81.3951 5.81589 82.326 5.17 83.9539 5.17V4.47C82.1019 4.47 80.9527 5.22411 80.2657 6.22144L80.8421 6.61856ZM83.9539 5.17C85.5071 5.17 86.5601 5.74951 87.2287 6.50881C87.9059 7.27784 88.2039 8.24888 88.2039 9.04H88.9039C88.9039 8.09112 88.5519 6.95216 87.7541 6.04619C86.9477 5.13048 85.7007 4.47 83.9539 4.47V5.17ZM88.2039 9.04V15H88.9039V9.04H88.2039ZM88.5539 14.65H86.1539V15.35H88.5539V14.65ZM86.5039 15V9.1H85.8039V15H86.5039ZM86.5039 9.1C86.5039 8.29619 86.2052 7.6788 85.713 7.26862C85.23 6.86617 84.5938 6.69 83.9539 6.69V7.39C84.474 7.39 84.9378 7.53383 85.2648 7.80638C85.5826 8.0712 85.8039 8.48381 85.8039 9.1H86.5039ZM83.9539 6.69C83.314 6.69 82.6778 6.86617 82.1948 7.26862C81.7026 7.6788 81.4039 8.29619 81.4039 9.1H82.1039C82.1039 8.48381 82.3252 8.0712 82.643 7.80638C82.97 7.53383 83.4338 7.39 83.9539 7.39V6.69ZM81.4039 9.1V15H82.1039V9.1H81.4039ZM81.7539 14.65H79.3539V15.35H81.7539V14.65ZM79.7039 15V9.1H79.0039V15H79.7039ZM79.7039 9.1C79.7039 8.29619 79.4052 7.6788 78.913 7.26862C78.43 6.86617 77.7938 6.69 77.1539 6.69V7.39C77.674 7.39 78.1378 7.53383 78.4648 7.80638C78.7826 8.0712 79.0039 8.48381 79.0039 9.1H79.7039ZM77.1539 6.69C76.514 6.69 75.8778 6.86617 75.3948 7.26862C74.9026 7.6788 74.6039 8.29619 74.6039 9.1H75.3039C75.3039 8.48381 75.5252 8.0712 75.843 7.80638C76.17 7.53383 76.6338 7.39 77.1539 7.39V6.69ZM74.6039 9.1V15H75.3039V9.1H74.6039ZM74.9539 14.65H72.5539V15.35H74.9539V14.65ZM72.9039 15V9.04H72.2039V15H72.9039ZM72.9039 9.04C72.9039 8.24888 73.2019 7.27784 73.8791 6.50881C74.5477 5.74951 75.6007 5.17 77.1539 5.17V4.47C75.4071 4.47 74.1601 5.13048 73.3537 6.04619C72.5559 6.95216 72.2039 8.09112 72.2039 9.04H72.9039Z" fill="#F0F6FC" mask="url(#path-1-outside-1_4466_34497)"/>
</svg>
