<svg width="24" height="24" viewBox="0 0 24 24" fill="none" xmlns="http://www.w3.org/2000/svg">
<g id="Frame">
<path id="Vector" d="M5.69426 12.0004L2.29926 3.27238C2.06326 2.66538 2.65526 2.08438 3.24126 2.29038L3.33426 2.33038L21.3343 11.3304C21.4501 11.3884 21.549 11.4755 21.6212 11.5831C21.6934 11.6907 21.7364 11.8152 21.7462 11.9444C21.756 12.0736 21.7321 12.2032 21.6769 12.3204C21.6217 12.4376 21.5371 12.5386 21.4313 12.6134L21.3343 12.6714L3.33426 21.6714C2.75126 21.9624 2.11726 21.4274 2.26926 20.8244L2.29926 20.7284L5.69426 12.0004ZM4.40226 4.54038L7.01226 11.2504H13.6393C13.8205 11.2504 13.9956 11.316 14.1322 11.4351C14.2688 11.5543 14.3576 11.7188 14.3823 11.8984L14.3893 12.0004C14.3892 12.1818 14.3234 12.357 14.2041 12.4936C14.0848 12.6302 13.92 12.719 13.7403 12.7434L13.6393 12.7504H7.01026L4.40126 19.4604L19.3223 12.0004L4.40226 4.54038Z" fill="white"/>
</g>
</svg>
