<svg width="14" height="14" viewBox="0 0 14 14" fill="none" xmlns="http://www.w3.org/2000/svg">
<g id="Frame">
<path id="Vector" d="M7.007 1.3125C7.43517 1.31717 7.86159 1.36675 8.27984 1.46008C8.36882 1.47995 8.44937 1.52711 8.51024 1.59499C8.57111 1.66286 8.60925 1.74806 8.61934 1.83867L8.7185 2.72942C8.73251 2.855 8.77579 2.97554 8.84487 3.08135C8.91396 3.18715 9.00691 3.27526 9.11626 3.33859C9.22561 3.40191 9.34829 3.43869 9.47444 3.44595C9.6006 3.45322 9.72669 3.43077 9.84259 3.38042L10.6598 3.02167C10.7428 2.98512 10.8351 2.97526 10.9239 2.99344C11.0127 3.01162 11.0937 3.05696 11.1557 3.12317C11.746 3.7538 12.1855 4.51011 12.4413 5.33517C12.4682 5.42187 12.4674 5.51477 12.439 5.601C12.4107 5.68722 12.3563 5.76251 12.2833 5.81642L11.5588 6.35075C11.4569 6.42559 11.374 6.52336 11.3169 6.63615C11.2598 6.74894 11.2301 6.87358 11.2301 7C11.2301 7.12642 11.2598 7.25106 11.3169 7.36385C11.374 7.47664 11.4569 7.57441 11.5588 7.64925L12.2838 8.183C12.3571 8.23687 12.4117 8.31222 12.4401 8.39857C12.4686 8.48492 12.4694 8.57799 12.4425 8.66483C12.1866 9.48985 11.7471 10.2461 11.1568 10.8768C11.0951 10.9429 11.0143 10.9882 10.9257 11.0065C10.8371 11.0248 10.7451 11.0151 10.6622 10.9789L9.84142 10.619C9.72568 10.5683 9.59962 10.5455 9.47344 10.5525C9.34726 10.5595 9.22451 10.5961 9.11511 10.6594C9.00572 10.7227 8.91276 10.8108 8.84375 10.9167C8.77475 11.0226 8.73164 11.1432 8.71792 11.2688L8.61934 12.159C8.6094 12.2486 8.572 12.333 8.51228 12.4006C8.45255 12.4681 8.3734 12.5156 8.28567 12.5364C7.44074 12.7374 6.56043 12.7374 5.7155 12.5364C5.62777 12.5156 5.54863 12.4681 5.4889 12.4006C5.42917 12.333 5.39178 12.2486 5.38184 12.159L5.28384 11.27C5.26955 11.1447 5.22605 11.0245 5.15686 10.919C5.08766 10.8136 4.99468 10.7258 4.88541 10.6629C4.77613 10.5999 4.6536 10.5634 4.52767 10.5564C4.40175 10.5494 4.27593 10.572 4.16034 10.6225L3.34017 10.9818C3.25721 11.0182 3.16501 11.0279 3.0763 11.0096C2.9876 10.9913 2.90675 10.9459 2.84492 10.8798C2.25442 10.2484 1.81483 9.49126 1.55925 8.66542C1.53236 8.57857 1.53319 8.48551 1.56162 8.39916C1.59006 8.3128 1.64469 8.23746 1.71792 8.18358L2.443 7.64925C2.545 7.57449 2.62794 7.47674 2.68512 7.36394C2.74229 7.25114 2.77208 7.12646 2.77208 7C2.77208 6.87354 2.74229 6.74886 2.68512 6.63606C2.62794 6.52326 2.545 6.42552 2.443 6.35075L1.71792 5.81758C1.64479 5.76363 1.59028 5.68825 1.56195 5.60191C1.53362 5.51556 1.53288 5.42254 1.55984 5.33575C1.81564 4.5107 2.25522 3.7544 2.8455 3.12375C2.90744 3.05754 2.98843 3.01221 3.07725 2.99402C3.16608 2.97584 3.25836 2.9857 3.34134 3.02225L4.158 3.381C4.2741 3.43133 4.40038 3.45372 4.5267 3.44638C4.65302 3.43905 4.77586 3.40219 4.88535 3.33876C4.99483 3.27534 5.08792 3.18712 5.15713 3.08119C5.22634 2.97526 5.26973 2.85458 5.28384 2.72883L5.383 1.83867C5.39301 1.74787 5.43119 1.66249 5.49218 1.59449C5.55317 1.52649 5.63391 1.47929 5.72309 1.4595C6.14134 1.36675 6.56892 1.31775 7.007 1.3125ZM7.007 2.1875C6.7424 2.19061 6.47839 2.21342 6.21717 2.25575L6.15359 2.82567C6.12447 3.08791 6.03411 3.33964 5.88981 3.56054C5.74551 3.78145 5.55131 3.96534 5.32287 4.09738C5.09443 4.22943 4.83815 4.30593 4.57471 4.32072C4.31126 4.3355 4.04803 4.28816 3.80625 4.1825L3.28242 3.95267C2.94875 4.35757 2.68317 4.81406 2.49609 5.30425L2.96159 5.64667C3.17405 5.80281 3.34679 6.00674 3.46585 6.242C3.5849 6.47725 3.64694 6.73721 3.64694 7.00088C3.64694 7.26454 3.5849 7.5245 3.46585 7.75975C3.34679 7.99501 3.17405 8.19894 2.96159 8.35508L2.4955 8.69808C2.68217 9.18925 2.94817 9.64658 3.28184 10.0526L3.80975 9.821C4.05096 9.71569 4.31352 9.66848 4.5763 9.68317C4.83908 9.69787 5.09474 9.77405 5.3227 9.90559C5.55066 10.0371 5.74455 10.2204 5.88876 10.4405C6.03298 10.6607 6.12349 10.9116 6.153 11.1732L6.21717 11.7472C6.73575 11.8347 7.266 11.8347 7.78459 11.7472L7.84875 11.1732C7.87779 10.9113 7.96799 10.6599 8.11208 10.4393C8.25616 10.2188 8.45009 10.0351 8.67821 9.90332C8.90633 9.77149 9.16224 9.69514 9.4253 9.68043C9.68836 9.66573 9.9512 9.71308 10.1926 9.81867L10.7205 10.0497C11.054 9.64453 11.3194 9.18784 11.5063 8.6975L11.0408 8.3545C10.8283 8.19836 10.6556 7.99442 10.5365 7.75917C10.4174 7.52392 10.3554 7.26396 10.3554 7.00029C10.3554 6.73663 10.4174 6.47666 10.5365 6.24141C10.6556 6.00616 10.8283 5.80222 11.0408 5.64608L11.5051 5.30367C11.318 4.81348 11.0524 4.35699 10.7188 3.95208L10.1961 4.18133C9.95444 4.28712 9.69131 4.3346 9.42793 4.31994C9.16455 4.30528 8.90831 4.22889 8.67989 4.09695C8.45148 3.965 8.25729 3.78118 8.11302 3.56035C7.96874 3.33951 7.87842 3.08785 7.84934 2.82567L7.78517 2.25633C7.52803 2.21429 7.26812 2.19148 7.00759 2.18808L7.007 2.1875ZM7 4.8125C7.58016 4.8125 8.13656 5.04297 8.5468 5.4532C8.95704 5.86344 9.1875 6.41984 9.1875 7C9.1875 7.58016 8.95704 8.13656 8.5468 8.5468C8.13656 8.95703 7.58016 9.1875 7 9.1875C6.41984 9.1875 5.86344 8.95703 5.45321 8.5468C5.04297 8.13656 4.8125 7.58016 4.8125 7C4.8125 6.41984 5.04297 5.86344 5.45321 5.4532C5.86344 5.04297 6.41984 4.8125 7 4.8125ZM7 5.6875C6.65191 5.6875 6.31807 5.82578 6.07193 6.07192C5.82578 6.31806 5.6875 6.6519 5.6875 7C5.6875 7.3481 5.82578 7.68194 6.07193 7.92808C6.31807 8.17422 6.65191 8.3125 7 8.3125C7.3481 8.3125 7.68194 8.17422 7.92808 7.92808C8.17422 7.68194 8.3125 7.3481 8.3125 7C8.3125 6.6519 8.17422 6.31806 7.92808 6.07192C7.68194 5.82578 7.3481 5.6875 7 5.6875Z" fill="#9198A1"/>
</g>
</svg>
