<svg width="14" height="14" viewBox="0 0 14 14" fill="none" xmlns="http://www.w3.org/2000/svg">
<g id="Frame">
<path id="Vector" d="M12.2675 1.73239C12.6589 2.12381 12.8788 2.65468 12.8788 3.20823C12.8788 3.76177 12.6589 4.29264 12.2675 4.68406L5.28613 11.6666C5.12463 11.8281 4.92376 11.9448 4.70338 12.0049L1.71905 12.8186C1.64467 12.8388 1.56627 12.839 1.49181 12.8191C1.41734 12.7993 1.34943 12.7601 1.29496 12.7056C1.2405 12.6511 1.2014 12.5831 1.18163 12.5086C1.16186 12.4341 1.16212 12.3558 1.18238 12.2814L1.99613 9.29706C2.05627 9.07668 2.17289 8.87581 2.33446 8.71431L9.3158 1.73239C9.70722 1.34098 10.2381 1.12109 10.7916 1.12109C11.3452 1.12109 11.876 1.34098 12.2675 1.73239ZM8.74996 3.53489L2.9528 9.33323C2.89901 9.38708 2.86021 9.45404 2.84021 9.52748L2.22771 11.7733L4.47355 11.1608C4.54669 11.1403 4.61324 11.1011 4.66663 11.0471L10.465 5.24989L8.74996 3.53489ZM9.93413 2.35073L9.3683 2.91656L11.0833 4.63156L11.6491 4.06573C11.8728 3.83752 11.9973 3.53028 11.9957 3.21076C11.9941 2.89125 11.8664 2.58528 11.6405 2.35935C11.4146 2.13341 11.1086 2.00577 10.7891 2.00416C10.4696 2.00254 10.1623 2.12709 9.93413 2.35073Z" fill="#9198A1"/>
</g>
</svg>
