<svg width="18" height="18" viewBox="0 0 18 18" fill="none" xmlns="http://www.w3.org/2000/svg">
<g id="Frame">
<path id="Vector" d="M10.3125 1.5C10.7278 1.50005 11.1285 1.65326 11.4379 1.93029C11.7473 2.20732 11.9437 2.58872 11.9895 3.0015V3H13.3125C13.5341 3 13.7535 3.04365 13.9583 3.12845C14.163 3.21326 14.349 3.33756 14.5057 3.49426C14.6624 3.65096 14.7867 3.83698 14.8715 4.04172C14.9564 4.24646 15 4.46589 15 4.6875V10.2825C14.9929 9.97209 14.8759 9.67425 14.67 9.44191C14.464 9.20957 14.1823 9.05777 13.875 9.0135V4.6875C13.875 4.53832 13.8157 4.39524 13.7102 4.28975C13.6048 4.18426 13.4617 4.125 13.3125 4.125H11.7157C11.4128 4.57725 10.8975 4.875 10.3125 4.875H7.6875C7.1025 4.875 6.58725 4.57725 6.28425 4.125H4.6875C4.53832 4.125 4.39524 4.18426 4.28975 4.28975C4.18426 4.39524 4.125 4.53832 4.125 4.6875V14.8125C4.125 15.123 4.377 15.375 4.6875 15.375H8.7225L9.3315 16.0597C9.58875 16.3492 9.945 16.4978 10.3043 16.5H4.6875C4.23995 16.5 3.81073 16.3222 3.49426 16.0057C3.17779 15.6893 3 15.2601 3 14.8125V4.6875C3 4.23995 3.17779 3.81072 3.49426 3.49426C3.81073 3.17779 4.23995 3 4.6875 3H6.0105C6.05662 2.58749 6.25316 2.20645 6.56253 1.92973C6.87191 1.65301 7.27242 1.50001 7.6875 1.5H10.3125ZM11.9963 3.072L12 3.1875C12 3.1485 11.9985 3.11025 11.9963 3.072ZM10.3125 2.625H7.6875C7.53832 2.625 7.39524 2.68426 7.28975 2.78975C7.18426 2.89524 7.125 3.03832 7.125 3.1875C7.125 3.33668 7.18426 3.47976 7.28975 3.58525C7.39524 3.69074 7.53832 3.75 7.6875 3.75H10.3125C10.4617 3.75 10.6048 3.69074 10.7102 3.58525C10.8157 3.47976 10.875 3.33668 10.875 3.1875C10.875 3.03832 10.8157 2.89524 10.7102 2.78975C10.6048 2.68426 10.4617 2.625 10.3125 2.625Z" fill="#9198A1"/>
<path id="Vector_2" d="M14.2504 10.314C14.2505 10.3678 14.2429 10.4214 14.2279 10.473L12.3529 16.848C12.332 16.9189 12.2974 16.985 12.2509 17.0426C12.2045 17.1001 12.1472 17.1479 12.0823 17.1833C12.0174 17.2187 11.9461 17.2409 11.8726 17.2488C11.7991 17.2566 11.7248 17.2499 11.6539 17.229C11.583 17.2081 11.5169 17.1735 11.4593 17.1271C11.4018 17.0806 11.354 17.0233 11.3186 16.9584C11.2472 16.8273 11.2307 16.6732 11.2729 16.53L13.1479 10.155C13.1858 10.0249 13.2695 9.91286 13.3834 9.83951C13.4974 9.76615 13.634 9.73642 13.7682 9.75576C13.9023 9.77511 14.025 9.84224 14.1136 9.9448C14.2022 10.0474 14.2507 10.1785 14.2504 10.314ZM8.39288 13.875C8.30146 13.7721 8.25098 13.6392 8.25098 13.5015C8.25098 13.3638 8.30146 13.2309 8.39288 13.128L9.89288 11.4405C9.99369 11.3359 10.1311 11.2743 10.2763 11.2687C10.4215 11.2631 10.5632 11.3139 10.6718 11.4104C10.7803 11.507 10.8473 11.6418 10.8587 11.7867C10.8701 11.9315 10.825 12.0752 10.7329 12.1875L9.56663 13.5015L10.7344 14.8155C10.8334 14.9271 10.8841 15.0735 10.8752 15.2224C10.8664 15.3714 10.7987 15.5107 10.6871 15.6098C10.5755 15.7088 10.4292 15.7595 10.2802 15.7506C10.1313 15.7418 9.99194 15.6741 9.89288 15.5625L8.39288 13.875ZM14.8144 15.609C14.703 15.51 14.6354 15.3708 14.6266 15.222C14.6177 15.0733 14.6683 14.927 14.7671 14.8155L15.9356 13.5015L14.7671 12.1875C14.6681 12.0759 14.6174 11.9295 14.6263 11.7806C14.6351 11.6316 14.7028 11.4923 14.8144 11.3933C14.926 11.2942 15.0723 11.2435 15.2213 11.2524C15.3702 11.2612 15.5096 11.3289 15.6086 11.4405L17.1086 13.128C17.2 13.2309 17.2505 13.3638 17.2505 13.5015C17.2505 13.6392 17.2 13.7721 17.1086 13.875L15.6086 15.5625C15.5596 15.6179 15.5001 15.663 15.4336 15.6954C15.367 15.7277 15.2948 15.7467 15.2209 15.751C15.1471 15.7554 15.0731 15.7452 15.0032 15.721C14.9333 15.6967 14.8689 15.6589 14.8136 15.6098L14.8144 15.609Z" fill="#9198A1"/>
</g>
</svg>
