<svg width="30" height="23" viewBox="0 0 30 23" fill="none" xmlns="http://www.w3.org/2000/svg">
<g id="3 User">
<path id="Stroke 1" d="M22.6211 10.5726C24.7575 10.5726 26.4906 8.84072 26.4906 6.70427C26.4906 4.56783 24.7575 2.83594 22.6211 2.83594" stroke="#F0F6FC" stroke-width="1.5" stroke-linecap="round" stroke-linejoin="round"/>
<path id="Stroke 3" d="M24.4004 14.7773C25.0384 14.8213 25.6727 14.9118 26.2973 15.0523C27.1651 15.2222 28.2088 15.5779 28.5804 16.3565C28.8175 16.8551 28.8175 17.4357 28.5804 17.9356C28.2101 18.7141 27.1651 19.0686 26.2973 19.247" stroke="#F0F6FC" stroke-width="1.5" stroke-linecap="round" stroke-linejoin="round"/>
<path id="Stroke 5" d="M7.54924 10.5726C5.4128 10.5726 3.67969 8.84072 3.67969 6.70427C3.67969 4.56783 5.4128 2.83594 7.54924 2.83594" stroke="#F0F6FC" stroke-width="1.5" stroke-linecap="round" stroke-linejoin="round"/>
<path id="Stroke 7" d="M5.76964 14.7773C5.13164 14.8213 4.4973 14.9118 3.87275 15.0523C3.00497 15.2222 1.96119 15.5779 1.59086 16.3565C1.35253 16.8551 1.35253 17.4357 1.59086 17.9356C1.95997 18.7141 3.00497 19.0686 3.87275 19.247" stroke="#F0F6FC" stroke-width="1.5" stroke-linecap="round" stroke-linejoin="round"/>
<path id="Stroke 9" fill-rule="evenodd" clip-rule="evenodd" d="M15.0783 15.6133C19.4074 15.6133 23.1059 16.2684 23.1059 18.8901C23.1059 21.5105 19.4319 22.1901 15.0783 22.1901C10.748 22.1901 7.05078 21.5349 7.05078 18.9133C7.05078 16.2916 10.7248 15.6133 15.0783 15.6133Z" stroke="#F0F6FC" stroke-width="1.5" stroke-linecap="round" stroke-linejoin="round"/>
<path id="Stroke 11" fill-rule="evenodd" clip-rule="evenodd" d="M15.0799 11.8719C12.2248 11.8719 9.93555 9.5827 9.93555 6.72636C9.93555 3.87125 12.2248 1.58203 15.0799 1.58203C17.935 1.58203 20.2242 3.87125 20.2242 6.72636C20.2242 9.5827 17.935 11.8719 15.0799 11.8719Z" stroke="#F0F6FC" stroke-width="1.5" stroke-linecap="round" stroke-linejoin="round"/>
</g>
</svg>
