<svg width="24" height="24" viewBox="0 0 24 24" fill="none" xmlns="http://www.w3.org/2000/svg">
<g id="Frame">
<path id="Vector" d="M21.0294 2.96982C21.7004 3.64082 22.0773 4.55089 22.0773 5.49982C22.0773 6.44875 21.7004 7.35882 21.0294 8.02982L9.06138 19.9998C8.78453 20.2768 8.44018 20.4767 8.06238 20.5798L2.94638 21.9748C2.81887 22.0094 2.68448 22.0097 2.55682 21.9757C2.42916 21.9416 2.31275 21.8745 2.21938 21.781C2.12601 21.6876 2.05899 21.5711 2.0251 21.4434C1.9912 21.3157 1.99165 21.1813 2.02638 21.0538L3.42138 15.9378C3.52448 15.56 3.7244 15.2157 4.00138 14.9388L15.9694 2.96982C16.6404 2.29883 17.5504 1.92187 18.4994 1.92188C19.4483 1.92187 20.3584 2.29883 21.0294 2.96982ZM14.9994 6.05982L5.06138 15.9998C4.96918 16.0921 4.90265 16.2069 4.86838 16.3328L3.81838 20.1828L7.66838 19.1328C7.79377 19.0977 7.90785 19.0305 7.99938 18.9378L17.9394 8.99982L14.9994 6.05982ZM17.0294 4.02982L16.0594 4.99982L18.9994 7.93982L19.9694 6.96982C20.3528 6.57861 20.5663 6.05191 20.5635 5.50417C20.5607 4.95643 20.3419 4.43191 19.9546 4.04459C19.5673 3.65728 19.0428 3.43846 18.495 3.43569C17.9473 3.43293 17.4206 3.64644 17.0294 4.02982Z" fill="#F0F6FC"/>
</g>
</svg>
